<svg xmlns="http://www.w3.org/2000/svg" xml:space="preserve" width="80" height="36" viewBox="0 0 74.189 32.785"><path d="M137.04 211.048s.518-1.312.69-1.554c.173-.242 1.348-1.934 1.348-1.934l1.312-1.727s.76-.45 1.106-.484c.345-.035 1.45.104 1.45.104s.933-.07 1.278-.208l.691-.276-2.59-.07-1.037.105 1.796-1.693.83-.69s1.657-.035 2.037-.104c.38-.07 1.037-.311 1.037-.311l-1.278-.035-1.244-.034 1.658-1.14 3.592-2.245-2.832 1.347-1.209.622s.158-.413.35-.84c.205-.454.365-.89.393-.991.013-.048-.442.697-.653 1.06-.188.326-.43 1.028-.43 1.028l-2.663 1.9s-.104-1.008.098-1.674c.201-.665.293-1.093.293-1.093s-.757.892-1.008 1.686c-.25.793-.262 1.721-.262 1.721l-3.975 4.146s-.928-2.198-.782-4.103c.147-1.905 1.05-3.2 1.246-3.444.195-.244 1.245-1.465 1.245-1.465s-.182.54-.134.99c.047.448.078.509.078.509s.85-1.975 1.705-2.525c.855-.55 1.307-.757 1.307-.757s-.074.17-.096.272c-.022.102-.028.294-.028.294s.872-.825 1.174-.972c.303-.147.985-.457 1.192-.475.207-.017.769-.13 1.028-.086.259.043.639.173.639.173s-.42.32-.531.596a2.635 2.635 0 0 0-.152.544s1.032-.881 1.365-.959c.332-.078.518-.216 1.053-.207.536.009 1.2.086 1.2.086s-.25.156-.362.38c-.112.225-.164.406-.164.406s1.615-.181 2.375-.026c.76.156 1.865.492 2.115.7.25.207.303.328.303.328s-1.322.94-1.59 1.476c-.267.536-.612 1.287-.612 1.287l-.346.924s.043.06.225-.043c.181-.104.354-.268.354-.268s.181.743-.182 1.27c-.362.526-.958.932-1.027 1.001-.07.07-.613.371-.613.371s.241.061.405.061c.165 0 .432-.07.432-.07s-.302.64-.673.942c-.372.302-.708.596-.942.734-.233.138-1.07.458-1.07.458s.164.155.414.155c.25 0 .432-.077.432-.077s-.535.872-.95 1.183c-.414.31-.527.405-.846.518-.32.112-1.321.207-1.321.207l-.76.086s.837.216 1.07.19c.234-.026.424-.086.424-.086s-.337.432-.709.561c-.37.13-1.373.397-2.063.45-.691.051-1.667.18-2.237.163-.57-.017-1.416-.224-1.416-.224l-1.088-.242s-.458.535-.63.933c-.173.397-.242.94-.242.94l-.044.536z" transform="translate(-111.842 -195.892)" style="fill: rgb(31, 120, 86); fill-opacity: 1; stroke-width: 1.94;"></path><path d="M114.276 228.678c-.893 0-1.528-.47-1.905-1.412-.353-.94-.529-2.446-.529-4.515 0-3.058.435-5.962 1.305-8.714.212-.682.553-1.176 1.023-1.481.494-.33 1.176-.494 2.047-.494.47 0 .8.058.987.176.188.118.283.341.283.67 0 .377-.177 1.223-.53 2.54-.235.941-.423 1.764-.564 2.47-.141.682-.259 1.54-.353 2.575.635-1.834 1.388-3.387 2.258-4.657.894-1.27 1.8-2.21 2.716-2.822.941-.635 1.823-.952 2.646-.952s1.4.188 1.729.564c.353.376.529.953.529 1.729 0 .752-.223 2.116-.67 4.092a39.842 39.842 0 0 0-.388 1.905c1.176-2.893 2.48-4.998 3.915-6.315 1.435-1.317 2.776-1.975 4.022-1.975 1.529 0 2.293.764 2.293 2.293 0 .917-.259 2.575-.776 4.974-.447 2.046-.67 3.398-.67 4.057 0 .94.34 1.411 1.023 1.411.47 0 1.023-.282 1.658-.847.658-.588 1.529-1.528 2.61-2.822.283-.33.6-.494.953-.494.306 0 .54.141.705.424.189.282.283.67.283 1.164 0 .94-.224 1.67-.67 2.187-1.012 1.246-2.105 2.27-3.281 3.07-1.153.799-2.47 1.199-3.952 1.199-1.199 0-2.104-.341-2.716-1.024-.611-.705-.917-1.716-.917-3.033 0-.659.165-1.835.494-3.528.306-1.482.458-2.505.458-3.07 0-.376-.129-.564-.388-.564-.305 0-.74.4-1.305 1.2-.564.776-1.129 1.81-1.693 3.104a25.34 25.34 0 0 0-1.376 4.092c-.259 1.13-.565 1.882-.917 2.258-.33.376-.87.565-1.623.565-.776 0-1.364-.365-1.764-1.094-.376-.753-.564-1.658-.564-2.716 0-.894.117-2.188.352-3.881.188-1.505.283-2.493.283-2.963 0-.377-.13-.565-.389-.565-.352 0-.8.424-1.34 1.27-.541.847-1.07 1.929-1.588 3.246a33.173 33.173 0 0 0-1.199 3.88c-.259 1.106-.564 1.858-.917 2.258-.33.376-.859.565-1.588.565zm28.081 0c-1.528 0-2.645-.541-3.351-1.623-.682-1.082-1.023-2.517-1.023-4.304 0-1.058.13-2.41.388-4.057.282-1.67.635-3.222 1.058-4.657.212-.752.494-1.27.847-1.552.353-.282.917-.423 1.693-.423 1.2 0 1.8.4 1.8 1.2 0 .587-.224 1.951-.67 4.091-.565 2.587-.847 4.34-.847 5.257 0 .705.094 1.246.282 1.623.188.376.505.564.952.564.424 0 .953-.294 1.588-.882.635-.588 1.481-1.517 2.54-2.787.282-.33.6-.494.952-.494.306 0 .541.141.706.424.188.282.282.67.282 1.164 0 .94-.223 1.67-.67 2.187-2.329 2.846-4.504 4.269-6.527 4.269zm6.844 0c-.893 0-1.528-.47-1.905-1.412-.353-.94-.529-2.446-.529-4.515 0-3.058.435-5.962 1.305-8.714.212-.682.553-1.176 1.023-1.481.494-.33 1.176-.494 2.047-.494.47 0 .8.058.987.176.188.118.283.341.283.67 0 .377-.177 1.223-.53 2.54a54.12 54.12 0 0 0-.564 2.47 25.306 25.306 0 0 0-.353 2.61c.776-2.022 1.646-3.669 2.61-4.939.965-1.27 1.906-2.175 2.823-2.716.94-.54 1.8-.811 2.575-.811 1.529 0 2.293.764 2.293 2.293 0 .917-.258 2.575-.776 4.974-.447 2.046-.67 3.398-.67 4.057 0 .94.34 1.411 1.023 1.411.47 0 1.023-.282 1.658-.847.659-.588 1.529-1.528 2.61-2.822.283-.33.6-.494.953-.494.306 0 .541.141.706.424.188.282.282.67.282 1.164 0 .94-.224 1.67-.67 2.187-1.012 1.246-2.105 2.27-3.281 3.07-1.153.799-2.47 1.199-3.951 1.199-1.2 0-2.105-.341-2.717-1.024-.611-.705-.917-1.716-.917-3.033 0-.659.165-1.835.494-3.528.306-1.482.458-2.505.458-3.07 0-.376-.129-.564-.388-.564-.305 0-.74.4-1.305 1.2-.54.776-1.105 1.81-1.693 3.104a25.34 25.34 0 0 0-1.376 4.092c-.259 1.106-.564 1.858-.917 2.258-.33.376-.859.565-1.588.565zm20.814-13.265a73.207 73.207 0 0 0-.07 2.752c0 1.693.082 3.022.247 3.986.188.94.482 1.623.881 2.046.424.4 1 .6 1.73.6.375 0 .822-.118 1.34-.353a5.6 5.6 0 0 0 1.41-.917c.26-.235.518-.353.777-.353.282 0 .506.165.67.494.188.306.282.682.282 1.129 0 .447-.094.882-.282 1.305a2.485 2.485 0 0 1-.776 1.059c-1.223 1.01-2.61 1.517-4.163 1.517-2.234 0-3.869-.93-4.903-2.787-1.035-1.882-1.553-4.328-1.553-7.338 0-1.035.036-2.082.106-3.14h-1.376c-.705 0-1.187-.13-1.446-.388-.235-.259-.353-.67-.353-1.235 0-1.317.53-1.975 1.588-1.975h2.01c.4-2.587 1.012-4.95 1.835-7.091.823-2.14 1.81-3.845 2.963-5.115 1.176-1.27 2.435-1.905 3.775-1.905.988 0 1.764.435 2.328 1.305.565.87.847 1.964.847 3.28 0 3.646-1.529 6.821-4.586 9.526h3.951c.376 0 .647.082.811.247.165.164.247.47.247.917 0 1.623-1.328 2.434-3.986 2.434zm3.74-14.323c-.353 0-.753.447-1.2 1.34-.423.871-.835 2.094-1.235 3.67a51.578 51.578 0 0 0-.952 5.186c1.388-1.2 2.422-2.54 3.104-4.022.706-1.505 1.059-2.87 1.059-4.092 0-1.388-.259-2.082-.776-2.082zm8.854 27.588c-1.034 0-1.822-.283-2.363-.847-.518-.565-.776-1.305-.776-2.223 0-1.058.294-1.905.882-2.54.611-.635 1.458-.952 2.54-.952 1.034 0 1.81.259 2.328.776.54.494.811 1.235.811 2.222 0 1.082-.305 1.953-.917 2.611-.611.635-1.446.953-2.505.953z" aria-label="mint." transform="translate(-111.842 -195.892)" style="font-size: 35.2778px; font-family: Pacifico; fill: rgb(31, 120, 86); stroke-width: 1.94;"></path></svg>

